<svg width="30" height="20" viewBox="0 0 30 20" fill="none" xmlns="http://www.w3.org/2000/svg">
<path d="M26.1635 0H3.43621C1.68178 0 0.254395 1.42739 0.254395 3.18182V16.8182C0.254395 18.5726 1.68178 20 3.43621 20H26.1635C27.9179 20 29.3453 18.5726 29.3453 16.8182V3.18182C29.3453 1.42739 27.9179 0 26.1635 0ZM3.43621 1.81818H26.1635C26.9154 1.81818 27.5271 2.42994 27.5271 3.18182V5H2.07258V3.18182C2.07258 2.42994 2.68434 1.81818 3.43621 1.81818ZM26.1635 18.1818H3.43621C2.68434 18.1818 2.07258 17.5701 2.07258 16.8182V6.81818H27.5271V16.8182C27.5271 17.5701 26.9154 18.1818 26.1635 18.1818Z" fill="#BDBDBD"/>
<path d="M6.61799 15.4545H5.7089C5.20685 15.4545 4.7998 15.0475 4.7998 14.5454V13.6364C4.7998 13.1343 5.20685 12.7273 5.7089 12.7273H6.61799C7.12003 12.7273 7.52708 13.1343 7.52708 13.6364V14.5454C7.52708 15.0475 7.12003 15.4545 6.61799 15.4545Z" fill="#BDBDBD"/>
</svg>
