<svg width="22" height="16" viewBox="0 0 22 16" fill="none" xmlns="http://www.w3.org/2000/svg">
<path d="M21.183 9.02954H18.1798V6.46543H21.183C21.6342 6.46543 22 6.14079 22 5.73982C22 5.33882 21.6342 5.01398 21.183 5.01398H18.1798V1.45614C18.1798 0.936789 18.0643 0.555595 17.8366 0.323389C17.6201 0.102486 17.3356 -0.000305176 16.9415 -0.000305176C16.5655 -0.000305176 16.2917 0.101777 16.0794 0.321302C15.8543 0.553744 15.7401 0.935647 15.7401 1.45638V5.01441H10.091L7.68911 1.78543C7.48354 1.49726 7.29026 1.22732 7.10256 0.968218C6.93357 0.734869 6.76874 0.544883 6.61305 0.403023C6.47523 0.277428 6.31816 0.180229 6.13445 0.105519C5.96111 0.0352189 5.74074 -6.88535e-05 5.48003 -6.88535e-05C5.1475 -6.88535e-05 4.84565 0.0808645 4.55661 0.247142C4.27058 0.411608 4.07286 0.614946 3.9521 0.868813C3.84611 1.11008 3.79003 1.47977 3.79003 1.95698V5.01418H0.816718C0.365557 5.01422 0 5.33905 0 5.74002C0 6.14098 0.365557 6.46562 0.816762 6.46562H3.79007V9.03001H0.816762C0.365557 9.03001 0 9.35477 0 9.75585C0 10.1567 0.365557 10.4812 0.816762 10.4812H3.79007V14.5434C3.79007 15.0474 3.90928 15.4247 4.14539 15.6645C4.36993 15.8931 4.65462 15.9992 5.04124 15.9992C5.41424 15.9992 5.69672 15.8926 5.93097 15.6636C6.17085 15.4289 6.29218 15.0518 6.29218 14.5434V10.4812H11.4039L14.1702 14.2496C14.3625 14.4987 14.5611 14.7501 14.7592 14.9966C14.9379 15.218 15.1329 15.4131 15.3386 15.576C15.5238 15.7234 15.7224 15.8314 15.9289 15.8973C16.1414 15.9652 16.3898 15.9997 16.6655 15.9997C17.4136 15.9997 18.1797 15.7962 18.1797 14.2873V10.4812H21.1829C21.6341 10.4812 21.9999 10.1562 21.9999 9.75538C22 9.35453 21.6342 9.02954 21.183 9.02954ZM15.74 6.46539V9.0295H13.0783L11.1712 6.46539H15.74ZM6.29223 3.51914L7.38987 5.01398H6.29223V3.51914ZM6.29223 9.02954V6.46543H8.45569L10.3383 9.02954H6.29223ZM15.74 12.6084L14.1582 10.4812H15.74V12.6084Z" fill="white"/>
</svg>
