<svg width="20" height="21" viewBox="0 0 20 21" fill="none" xmlns="http://www.w3.org/2000/svg">
<path d="M19.1403 5.16014H10.9717L14.927 0.774933C15.1175 0.633219 15.1571 0.363927 15.0154 0.173363C14.8737 -0.0171998 14.6044 -0.0566989 14.4138 0.0850143C14.3719 0.116184 14.336 0.154769 14.3079 0.198836L10.0087 4.92799L5.70943 0.198836C5.56078 0.0137009 5.29014 -0.0158563 5.10501 0.132789C4.91987 0.281435 4.89032 0.552072 5.03896 0.737207C5.0496 0.750427 5.061 0.763056 5.07309 0.774933L9.02837 5.16014H0.859845C0.384942 5.16014 0 5.54509 0 6.01999V19.167C0 19.6419 0.384942 20.0269 0.859845 20.0269H19.1402C19.6151 20.0269 20 19.6419 20 19.167V6.00709C19.9931 5.53729 19.6101 5.16014 19.1403 5.16014ZM19.1403 19.1541H0.907244V6.00709H10.0001H10.0388H10.0775H19.1575L19.1403 19.1541Z" fill="black"/>
<path d="M16.9777 6.91428H3.03957C2.56972 6.92132 2.19257 7.30422 2.19263 7.77413V17.4001C2.19263 17.875 2.57757 18.2599 3.05247 18.2599H16.9777C17.4526 18.2599 17.8375 17.875 17.8375 17.4001V7.77413C17.8375 7.29922 17.4525 6.91428 16.9777 6.91428ZM16.9648 17.3828H3.04817V7.77407H16.9777L16.9648 17.3828Z" fill="black"/>
</svg>
