<svg width="20" height="20" viewBox="0 0 20 20" fill="none" xmlns="http://www.w3.org/2000/svg">
<path d="M5.86206 8.9653H7.58616V11.7239H5.86206V8.9653Z" fill="#05242C"/>
<path d="M8.96533 6.89638H10.6894V11.7239H8.96533V6.89638Z" fill="#05242C"/>
<path d="M12.0688 8.27567H13.7929V11.7239H12.0688V8.27567Z" fill="#05242C"/>
<path d="M15.1721 6.20674H16.8962V11.7239H15.1721V6.20674Z" fill="#05242C"/>
<path d="M19.6548 0H17.9307V0.689639H18.8224L15.517 3.99508L12.6574 1.13549C12.5927 1.07085 12.505 1.03453 12.4136 1.03453C12.3222 1.03453 12.2345 1.07085 12.1698 1.13549L8.27577 5.02954L6.10582 2.85959C6.04116 2.79494 5.95347 2.75863 5.86203 2.75863C5.7706 2.75863 5.68291 2.79494 5.61824 2.85959L0.790771 7.68706L1.27835 8.17464L5.86203 3.59095L8.03198 5.7609C8.09664 5.82554 8.18434 5.86186 8.27577 5.86186C8.3672 5.86186 8.45489 5.82554 8.51956 5.7609L12.4136 1.86685L15.2732 4.72644C15.3379 4.79109 15.4255 4.8274 15.517 4.8274C15.6084 4.8274 15.6961 4.79109 15.7608 4.72644L19.31 1.17721V2.06892H19.9996V0.34482C19.9996 0.253368 19.9633 0.165661 19.8986 0.100995C19.834 0.0363291 19.7463 0 19.6548 0Z" fill="#05242C"/>
<path d="M19.8854 12.4735C19.7119 12.2076 19.4463 12.0153 19.1395 11.9335C18.8328 11.8517 18.5066 11.8862 18.2238 12.0304L15.7259 13.3062C15.7111 13.261 15.6916 13.2174 15.6676 13.1762C15.4671 12.8291 15.1408 12.5723 14.7562 12.459C14.3716 12.3457 13.9582 12.3846 13.6015 12.5676L10.8184 13.9959C10.6237 14.0959 10.4077 14.1474 10.1888 14.146C9.96989 14.1446 9.75457 14.0902 9.5612 13.9876L7.6647 12.9804C7.00161 12.6283 6.2541 12.4663 5.50473 12.5123C4.75536 12.5583 4.03329 12.8105 3.41824 13.2411L2.72412 13.7283L3.17239 14.9124L3.73893 18.4854L5.27268 18.1551C5.57507 18.0901 5.88641 18.0777 6.19301 18.1185L10.5001 18.5909C11.3103 18.699 12.1321 18.5069 12.8104 18.051L19.6975 13.4304C19.8479 13.3273 19.9519 13.1693 19.987 12.9903C20.0221 12.8114 19.9857 12.6258 19.8854 12.4735Z" fill="#05242C"/>
<path d="M15.3627 14.4945C16.211 13.9938 15.9282 13.5007 15.8213 13.2583L15.7254 13.3073C15.7753 13.4571 15.7725 13.6195 15.7175 13.7675C15.6625 13.9156 15.5586 14.0404 15.423 14.1214L11.5859 16.3976C10.8376 16.8423 9.94713 16.9827 9.09835 16.7896L6.55151 16.2065L9.04215 17.1206C9.45396 17.2488 9.88833 17.2878 10.3164 17.2351C10.7444 17.1825 11.1564 17.0393 11.5249 16.8151L15.3627 14.4945Z" fill="#05242C"/>
<path d="M3.69134 13.6804C4.87392 12.93 6.30609 12.68 7.67297 12.9852L7.66538 12.9814C7.00229 12.6293 6.25479 12.4673 5.50542 12.5133C4.75605 12.5593 4.03397 12.8115 3.41893 13.2421L2.72412 13.7283L2.89653 14.1852L3.69134 13.6804Z" fill="#05242C"/>
<path d="M4.23197 19.4237L1.55652 19.9995L0 12.5814L2.67511 12.0056L4.23197 19.4237Z" fill="#05242C"/>
<path d="M1.22021 13.3797L1.89507 13.2377L2.03693 13.9119L1.36208 14.0539L1.22021 13.3797Z" fill="#05242C"/>
</svg>
