<svg width="20" height="20" viewBox="0 0 20 20" fill="none" xmlns="http://www.w3.org/2000/svg">
<path d="M19.4139 20H0.585934C0.262342 20 0 19.7377 0 19.4141C0 19.0905 0.262342 18.8281 0.585934 18.8281H19.4139C19.7375 18.8281 19.9999 19.0905 19.9999 19.4141C19.9999 19.7377 19.7375 20 19.4139 20Z" fill="#BDBDBD"/>
<path d="M4.14061 20H1.79687C1.47328 20 1.21094 19.7377 1.21094 19.4141V15.1172C1.21094 14.5787 1.64902 14.1407 2.18749 14.1407H3.74998C4.28846 14.1407 4.72654 14.5787 4.72654 15.1172V19.4141C4.72654 19.7377 4.4642 20 4.14061 20ZM2.38281 18.8281H3.55467V15.3125H2.38281V18.8281ZM3.74998 15.3125H3.75038H3.74998Z" fill="#BDBDBD"/>
<path d="M8.82811 20H6.48437C6.16078 20 5.89844 19.7376 5.89844 19.4141V13.711C5.89844 13.1725 6.33652 12.7344 6.87499 12.7344H8.43748C8.97596 12.7344 9.41404 13.1725 9.41404 13.711V19.4141C9.41404 19.7376 9.1517 20 8.82811 20ZM7.07031 18.8281H8.24217V13.9063H7.07031V18.8281ZM8.43748 13.9063H8.43787H8.43748Z" fill="#BDBDBD"/>
<path d="M13.5156 20H11.1719C10.8483 20 10.5859 19.7377 10.5859 19.4141V11.5626C10.5859 11.0241 11.024 10.586 11.5625 10.586H13.125C13.6635 10.586 14.1015 11.0241 14.1015 11.5626V19.4141C14.1015 19.7377 13.8392 20 13.5156 20ZM11.7578 18.8281H12.9297V11.7579H11.7578V18.8281ZM13.125 11.7579H13.1254H13.125Z" fill="#BDBDBD"/>
<path d="M18.2031 20H15.8594C15.5358 20 15.2734 19.7376 15.2734 19.414V7.65631C15.2734 7.11783 15.7115 6.67975 16.25 6.67975H17.8125C18.351 6.67975 18.789 7.11783 18.789 7.65631V19.414C18.789 19.7376 18.5267 20 18.2031 20ZM16.4453 18.8281H17.6172V7.85162H16.4453V18.8281ZM17.8125 7.85162H17.8129H17.8125Z" fill="#BDBDBD"/>
<path d="M0.585934 12.59C0.262342 12.59 0 12.3277 0 12.0041C0 11.6805 0.262342 11.4182 0.585934 11.4182C4.03146 11.4182 7.78292 10.1635 11.1492 7.88526C14.2461 5.78938 16.7138 3.04174 17.9196 0.346871C18.0518 0.0514819 18.3984 -0.0808611 18.6937 0.0513647C18.9891 0.183512 19.1214 0.530112 18.9892 0.825501C17.6968 3.71404 15.0786 6.64097 11.806 8.85576C8.24788 11.2638 4.26314 12.59 0.585934 12.59Z" fill="#BDBDBD"/>
<path d="M19.4136 4.75298C19.1549 4.75298 18.9181 4.58033 18.848 4.31853L18.0402 1.30367L15.0253 2.11151C14.7126 2.19534 14.3915 2.0098 14.3077 1.69722C14.224 1.38464 14.4094 1.06336 14.722 0.979608L18.3028 0.0201214C18.6155 -0.0636672 18.9367 0.121879 19.0205 0.434416L19.9799 4.01525C20.0637 4.32783 19.8782 4.64912 19.5656 4.73287C19.5148 4.74646 19.4638 4.75298 19.4136 4.75298Z" fill="#BDBDBD"/>
</svg>
