<svg width="12" height="12" viewBox="0 0 12 12" fill="none" xmlns="http://www.w3.org/2000/svg">
<path d="M10.9204 0H0.32959C0.147568 0 0 0.147568 0 0.32959V9.55811C0 9.74013 0.147568 9.8877 0.32959 9.8877H1.09863V10.9204C1.09863 11.1024 1.2462 11.25 1.42822 11.25H3.18604C3.36806 11.25 3.51562 11.1024 3.51562 10.9204V9.8877H7.73438V10.9204C7.73438 11.1024 7.88194 11.25 8.06396 11.25H9.82178C10.0038 11.25 10.1514 11.1024 10.1514 10.9204V9.8877H10.9204C11.1024 9.8877 11.25 9.74013 11.25 9.55811V0.32959C11.25 0.147568 11.1024 0 10.9204 0ZM0.65918 2.85645H1.31836V3.95508H0.65918V2.85645ZM0.65918 4.61426H1.31836V5.27344H0.65918V4.61426ZM0.65918 5.93262H1.31836V7.03125H0.65918V5.93262ZM2.85645 10.5908H1.75781V9.8877H2.85645V10.5908ZM9.49219 10.5908H8.39355V9.8877H9.49219V10.5908ZM10.5908 9.22852H0.65918V7.69043H1.31836V8.23975C1.31836 8.42177 1.46593 8.56934 1.64795 8.56934H9.60205C9.78407 8.56934 9.93164 8.42177 9.93164 8.23975V1.64795C9.93164 1.46593 9.78407 1.31836 9.60205 1.31836H1.64795C1.46593 1.31836 1.31836 1.46593 1.31836 1.64795V2.19727H0.65918V0.65918H10.5908V9.22852ZM1.97754 7.91016V1.97754H9.27246V7.91016H1.97754Z" fill="white"/>
<path d="M4.94385 2.63672C3.6717 2.63672 2.63672 3.6717 2.63672 4.94385C2.63672 6.216 3.6717 7.25098 4.94385 7.25098C6.216 7.25098 7.25098 6.216 7.25098 4.94385C7.25098 3.6717 6.216 2.63672 4.94385 2.63672ZM4.94385 6.5918C4.03517 6.5918 3.2959 5.85253 3.2959 4.94385C3.2959 4.03517 4.03517 3.2959 4.94385 3.2959C5.85253 3.2959 6.5918 4.03517 6.5918 4.94385C6.5918 5.85253 5.85253 6.5918 4.94385 6.5918Z" fill="white"/>
<path d="M4.94385 3.95508C4.39864 3.95508 3.95508 4.39864 3.95508 4.94385C3.95508 5.48906 4.39864 5.93262 4.94385 5.93262C5.48906 5.93262 5.93262 5.48906 5.93262 4.94385C5.93262 4.39864 5.48906 3.95508 4.94385 3.95508ZM4.94385 5.27344C4.76211 5.27344 4.61426 5.12558 4.61426 4.94385C4.61426 4.76211 4.76211 4.61426 4.94385 4.61426C5.12558 4.61426 5.27344 4.76211 5.27344 4.94385C5.27344 5.12558 5.12558 5.27344 4.94385 5.27344Z" fill="white"/>
<path d="M8.28369 3.95508C8.10167 3.95508 7.9541 4.10265 7.9541 4.28467V5.60303C7.9541 5.78505 8.10167 5.93262 8.28369 5.93262C8.46571 5.93262 8.61328 5.78505 8.61328 5.60303V4.28467C8.61328 4.10265 8.46571 3.95508 8.28369 3.95508Z" fill="white"/>
</svg>
