<svg width="25" height="20" viewBox="0 0 25 20" fill="none" xmlns="http://www.w3.org/2000/svg">
<path d="M18.2226 20C17.8783 20 17.5657 19.9498 17.2939 19.8517C17.0238 19.7553 16.7651 19.5973 16.5263 19.3836C16.2862 19.1694 16.0571 18.913 15.8484 18.6209C15.6356 18.3232 15.4228 18.02 15.2171 17.7196L12.3977 13.3973H7.6236V17.8294C7.6236 18.5482 7.45702 19.0953 7.12901 19.4578C6.79758 19.8223 6.38429 19.9994 5.86604 19.9994C5.32953 19.9994 4.91281 19.8203 4.59137 19.4521C4.27049 19.0861 4.10791 18.5399 4.10791 17.8294V13.3973H1.37545C0.660676 13.3973 0.0791016 12.8157 0.0791016 12.101C0.0791016 11.3862 0.660676 10.8046 1.37545 10.8046H4.10791V8.59213H1.37545C0.660676 8.59241 0.0791016 8.01084 0.0791016 7.29635C0.0791016 6.58186 0.660676 6 1.37545 6H4.10791V2.76954C4.10791 2.14518 4.17579 1.65459 4.30956 1.31204C4.47671 0.915573 4.73968 0.609241 5.11789 0.364518C5.4961 0.119224 5.89342 0 6.33238 0C6.67151 0 6.96587 0.0553338 7.20546 0.165146C7.45161 0.277524 7.66011 0.42356 7.84322 0.611523C8.02976 0.802339 8.22257 1.05277 8.41709 1.35482C8.61704 1.66572 8.82325 1.98945 9.04202 2.33514L11.4642 6H16.811V2.17056C16.811 1.4421 16.967 0.891614 17.2745 0.533657C17.5831 0.174558 17.9893 0 18.5158 0C19.06 0 19.4773 0.174843 19.7905 0.534512C20.1022 0.892185 20.2599 1.44295 20.2599 2.17056V6H23.0246C23.7394 6 24.321 6.58157 24.321 7.29635C24.321 8.01112 23.7394 8.59241 23.0246 8.59241H20.2599V10.8052H23.0246C23.7394 10.8052 24.321 11.3865 24.321 12.1015C24.321 12.8163 23.7394 13.3973 23.0246 13.3973H20.2599V17.5237C20.2599 19.19 19.5936 20 18.2226 20ZM7.19576 12.5416H12.6296C12.7739 12.5416 12.9088 12.6147 12.9878 12.7356L15.9291 17.2447C16.1253 17.5328 16.3358 17.8309 16.5443 18.1235C16.7166 18.3634 16.9025 18.5727 17.0971 18.7461C17.2537 18.8865 17.4168 18.9874 17.584 19.0471C17.7634 19.1124 17.9778 19.1449 18.2229 19.1449C18.7211 19.1449 19.4045 19.1449 19.4045 17.524V12.9695C19.4045 12.7333 19.5965 12.5416 19.8324 12.5416H23.0249C23.2682 12.5416 23.4656 12.344 23.4656 12.101C23.4656 11.858 23.2682 11.6603 23.0249 11.6603H19.8321C19.5959 11.6603 19.4043 11.4686 19.4043 11.2325V8.16457C19.4043 7.92841 19.5959 7.73674 19.8321 7.73674H23.0246C23.2676 7.73674 23.4653 7.53936 23.4653 7.29635C23.4653 7.05334 23.2676 6.85568 23.0246 6.85568H19.8321C19.5959 6.85568 19.4043 6.664 19.4043 6.42784V2.17056C19.4043 1.52881 19.2634 1.23217 19.1447 1.09612C19.0412 0.976897 18.8857 0.855391 18.5158 0.855391C18.2388 0.855391 18.0674 0.923559 17.9237 1.09099C17.807 1.22761 17.6672 1.52539 17.6672 2.17028V6.42755C17.6672 6.66372 17.4756 6.85539 17.2394 6.85539H11.234C11.0902 6.85539 10.9559 6.78323 10.8769 6.66343L8.32382 2.80006C8.10106 2.44923 7.89599 2.12721 7.69718 1.81803C7.53404 1.56389 7.37688 1.3591 7.23027 1.20907C7.12217 1.09755 6.9981 1.01112 6.84978 0.94324C6.72457 0.88591 6.54516 0.855391 6.33238 0.855391C6.05999 0.855391 5.82211 0.927553 5.58309 1.08243C5.35035 1.23331 5.19747 1.40873 5.1022 1.63406C5.05315 1.75955 4.96358 2.09099 4.96358 2.76954V6.42755C4.96358 6.66372 4.77191 6.85539 4.53575 6.85539H1.37545C1.13244 6.85568 0.934777 7.05334 0.934777 7.29635C0.934777 7.53936 1.13244 7.73674 1.37545 7.73674H4.53575C4.77191 7.73674 4.96358 7.92841 4.96358 8.16457V11.2327C4.96358 11.4689 4.77191 11.6606 4.53575 11.6606H1.37545C1.13244 11.6603 0.934777 11.8582 0.934777 12.101C0.934777 12.3437 1.13244 12.5416 1.37545 12.5416H4.53575C4.77191 12.5416 4.96358 12.7333 4.96358 12.9695V17.8294C4.96358 18.3197 5.05771 18.6863 5.2354 18.889C5.39142 19.0679 5.57967 19.1443 5.86604 19.1443C6.14071 19.1443 6.32839 19.0665 6.49496 18.8828C6.67323 18.6865 6.76792 18.322 6.76792 17.8303V12.9695C6.76792 12.7333 6.95959 12.5416 7.19576 12.5416ZM17.2388 15.9427C17.0979 15.9427 16.9624 15.8725 16.8817 15.7504L15.2 13.2051C15.1136 13.0736 15.1059 12.905 15.1809 12.7667C15.2557 12.6281 15.4008 12.5416 15.5571 12.5416H17.2388C17.475 12.5416 17.6667 12.7333 17.6667 12.9695V15.5148C17.6667 15.7036 17.5423 15.8702 17.362 15.9247C17.3213 15.9367 17.2796 15.9427 17.2388 15.9427ZM16.3526 13.3973L16.811 14.091V13.3973H16.3526ZM17.2388 11.6603H14.4094C14.2656 11.6603 14.1313 11.5881 14.0523 11.4683L12.0252 8.40017C11.9382 8.26868 11.9305 8.10011 12.0052 7.96149C12.08 7.82316 12.2249 7.73645 12.3817 7.73645H17.2388C17.475 7.73645 17.6667 7.92812 17.6667 8.16429V11.2325C17.6667 11.4689 17.475 11.6603 17.2388 11.6603ZM14.6396 10.8046H16.811V8.59213H13.1772L14.6396 10.8046ZM11.4964 11.6603H7.19576C6.95959 11.6603 6.76792 11.4686 6.76792 11.2325V8.16457C6.76792 7.92841 6.95959 7.73674 7.19576 7.73674H9.49553C9.63985 7.73674 9.77477 7.80975 9.85377 7.93097L11.8549 10.9991C11.9408 11.1306 11.9473 11.2983 11.8729 11.4364C11.7979 11.5747 11.6535 11.6603 11.4964 11.6603ZM7.6236 10.8046H10.7066L9.26364 8.59213H7.6236V10.8046ZM8.36233 6.85596H7.19576C6.95959 6.85596 6.76792 6.66429 6.76792 6.42812V4.63947C6.76792 4.45008 6.89228 4.28323 7.07368 4.22932C7.2548 4.1757 7.45075 4.247 7.554 4.40559L8.72057 6.19424C8.80643 6.32573 8.81356 6.49372 8.73883 6.63177C8.66381 6.76954 8.51949 6.85596 8.36233 6.85596Z" fill="#BDBDBD"/>
</svg>
