<svg width="16" height="23" viewBox="0 0 16 23" fill="none" xmlns="http://www.w3.org/2000/svg">
<path d="M15.3697 17.1464H12.983C12.9229 17.1464 12.8644 17.1657 12.8161 17.2015C12.7678 17.2373 12.7322 17.2876 12.7147 17.3451L12.5174 17.9922C12.3736 17.9367 12.2409 17.8559 12.1257 17.7535L11.7254 17.3971C11.7196 17.392 11.7137 17.3871 11.7076 17.3825C11.2741 17.0547 10.7583 16.8532 10.2174 16.8004C9.67649 16.7475 9.13151 16.8455 8.64281 17.0833L8.47698 17.1635C8.25545 17.2703 8.01276 17.3259 7.76684 17.3262H6.58678L5.70431 16.8464C5.46891 16.7114 5.19888 16.6489 4.9281 16.6667C4.65732 16.6846 4.39785 16.7821 4.18224 16.9469L4.07172 16.8873C4.06961 16.8862 4.06756 16.8851 4.06545 16.8841C3.66805 16.6826 3.15469 16.803 2.83177 17.1399L2.8299 17.139C2.54735 16.986 2.21668 16.9479 1.90677 17.0327C1.59685 17.1174 1.33157 17.3185 1.16617 17.5939C1.12929 17.6552 1.1172 17.7282 1.13235 17.7981C1.14751 17.8679 1.18877 17.9294 1.24771 17.9699L5.4286 20.8405C5.43954 20.8481 5.45101 20.8548 5.46292 20.8606C6.08117 21.1651 6.78059 21.2637 7.45892 21.1422L9.87561 20.6972C9.88155 20.6962 9.88739 20.6949 9.89324 20.6934C10.0438 20.6553 10.2033 20.6755 10.3395 20.7501L11.4606 21.4588L11.1012 22.6377C11.0884 22.6796 11.0856 22.7239 11.093 22.7671C11.1005 22.8103 11.118 22.8512 11.144 22.8864C11.1701 22.9216 11.2041 22.9503 11.2433 22.97C11.2824 22.9897 11.3256 23 11.3695 23H14.7243C14.7928 23 14.8589 22.9749 14.9102 22.9295C14.9615 22.8841 14.9944 22.8215 15.0027 22.7535L15.6482 17.461C15.653 17.4215 15.6494 17.3816 15.6376 17.3437C15.6258 17.3057 15.6061 17.2708 15.5797 17.241C15.5534 17.2113 15.5211 17.1875 15.4849 17.1712C15.4487 17.1549 15.4094 17.1465 15.3697 17.1465V17.1464ZM5.42645 17.3335L5.43309 17.3372L5.60865 17.4326C5.51578 17.47 5.42696 17.5168 5.34355 17.5722L4.76951 17.2633C4.87789 17.2285 4.99235 17.2168 5.10552 17.229C5.21869 17.2411 5.32806 17.2768 5.42659 17.3338L5.42645 17.3335ZM3.80915 17.3827L4.92932 17.9863C4.88296 18.056 4.84262 18.1295 4.80874 18.2061L3.36364 17.427C3.50651 17.3417 3.67801 17.3182 3.80915 17.3831V17.3827ZM10.6323 20.2715C10.6281 20.2687 10.6238 20.2661 10.6194 20.2637C10.3599 20.118 10.0548 20.0762 9.76579 20.1468L7.35798 20.5901C6.80501 20.6891 6.23489 20.6107 5.72913 20.3662L1.82521 17.6857C1.93036 17.6074 2.05572 17.5608 2.18651 17.5513C2.31729 17.5419 2.44805 17.5701 2.56336 17.6325L4.55258 18.7056L4.68349 18.7746C4.68349 18.7839 4.68283 18.7929 4.68283 18.8021C4.68283 18.8765 4.71239 18.9479 4.765 19.0005C4.8176 19.0531 4.88896 19.0827 4.96336 19.0827C4.96756 19.0827 4.97182 19.0827 4.97607 19.0824L6.34768 19.0203C6.74331 19.0024 7.13975 19.0208 7.53204 19.075C7.56853 19.0801 7.60566 19.0779 7.64131 19.0686C7.67696 19.0593 7.71043 19.0431 7.7398 19.0209C7.76918 18.9986 7.79389 18.9708 7.81252 18.939C7.83116 18.9073 7.84335 18.8721 7.8484 18.8356C7.85345 18.7991 7.85127 18.762 7.84197 18.7264C7.83268 18.6907 7.81645 18.6572 7.79422 18.6279C7.77199 18.5985 7.74419 18.5738 7.71241 18.5551C7.68063 18.5365 7.64549 18.5243 7.609 18.5193C7.18281 18.4604 6.75214 18.4405 6.32234 18.4598L5.29292 18.5066C5.35483 18.3261 5.47155 18.1694 5.6268 18.0583C5.78205 17.9473 5.96808 17.8875 6.15894 17.8873H7.76698C8.09748 17.8869 8.42365 17.8121 8.72136 17.6686L8.88719 17.5884C9.28143 17.3966 9.72091 17.3171 10.1574 17.3587C10.5938 17.4003 11.0104 17.5613 11.3613 17.8242L11.7528 18.1727C11.9286 18.3288 12.1326 18.4499 12.3538 18.5296L11.6304 20.9023L10.6323 20.2715ZM14.4759 22.439H11.7483L13.1908 17.7075H15.0529L14.4759 22.439Z" fill="#930396"/>
<path d="M2.96352 8.67597V8.17669H3.2374C3.40995 8.17681 3.58225 8.18983 3.75286 8.21564L2.94459 9.3178C2.38258 10.0804 2.09469 11.0104 2.1276 11.9571C2.16051 12.9038 2.5123 13.8116 3.1259 14.5333C3.59236 15.0855 4.17381 15.5293 4.82959 15.8334C5.48538 16.1376 6.19968 16.2948 6.92256 16.2942C7.64544 16.2948 8.35974 16.1375 9.01552 15.8334C9.6713 15.5292 10.2528 15.0855 10.7192 14.5333C11.3328 13.8116 11.6846 12.9038 11.7175 11.9571C11.7504 11.0104 11.4625 10.0804 10.9005 9.3178L10.0846 8.20507C10.0846 8.1982 10.0856 8.19156 10.0856 8.18468C10.0857 7.99891 10.0309 7.81724 9.92812 7.66249C10.0534 7.58849 10.16 7.48667 10.2397 7.3649C10.3194 7.24313 10.37 7.10467 10.3876 6.96022C10.4052 6.81577 10.3894 6.6692 10.3413 6.53184C10.2933 6.39449 10.2143 6.27002 10.1105 6.16806C10.2904 5.98805 10.3924 5.7445 10.3944 5.48995C10.3964 5.23541 10.2981 4.9903 10.121 4.80753C10.2343 4.6969 10.3167 4.55851 10.36 4.40614C10.4032 4.25377 10.4058 4.09273 10.3675 3.93904C10.3292 3.78536 10.2513 3.64439 10.1415 3.53016C10.0318 3.41593 9.8941 3.33242 9.74208 3.28795C10.1941 3.04221 10.4704 2.52269 10.4704 1.84537V1.81965C10.4704 1.74526 10.4409 1.6739 10.3882 1.6213C10.3356 1.56869 10.2643 1.53913 10.1899 1.53913H9.29559C9.4163 1.24264 9.55669 0.954541 9.71581 0.676763C9.7527 0.612318 9.7721 0.539345 9.77209 0.465087C9.77207 0.390828 9.75264 0.317864 9.71571 0.253435C9.67879 0.189005 9.62567 0.13535 9.56161 0.0977915C9.49755 0.0602333 9.42478 0.040078 9.35052 0.0393254L5.62805 0.000145932C5.56836 -0.00141418 5.50899 0.00954943 5.45379 0.0323303C5.39859 0.0551112 5.34878 0.0892039 5.30756 0.132412C5.24542 0.199472 5.20716 0.285166 5.1987 0.376195C5.19025 0.467224 5.21208 0.558499 5.2608 0.635854L5.43641 0.914552C5.56243 1.11556 5.67584 1.3242 5.77598 1.53927H5.53426C4.54538 1.53927 4.30123 2.27232 4.17004 2.66603C4.14946 2.73348 4.12483 2.79961 4.09627 2.86408C3.80466 3.04249 3.53878 3.12927 3.28416 3.12927H2.96352V2.52858C2.96352 2.45418 2.93397 2.38283 2.88136 2.33022C2.82875 2.27761 2.7574 2.24806 2.683 2.24806H0.280521C0.206122 2.24806 0.134771 2.27761 0.0821629 2.33022C0.029555 2.38283 0 2.45418 0 2.52858V8.67597C0 8.75037 0.029555 8.82172 0.0821629 8.87433C0.134771 8.92694 0.206122 8.95649 0.280521 8.95649H2.683C2.7574 8.95649 2.82875 8.92694 2.88136 8.87433C2.93397 8.82172 2.96352 8.75037 2.96352 8.67597ZM10.4481 9.64961C10.9352 10.3106 11.1847 11.1169 11.1562 11.9375C11.1277 12.7581 10.8227 13.5451 10.2909 14.1707C9.87666 14.6602 9.36073 15.0536 8.779 15.3234C8.19727 15.5932 7.56372 15.7329 6.92247 15.7329C6.28122 15.7329 5.64767 15.5932 5.06594 15.3234C4.48421 15.0536 3.96828 14.6602 3.55406 14.1707C3.02219 13.5451 2.71726 12.7581 2.68874 11.9375C2.66021 11.1168 2.90977 10.3106 3.39693 9.64961L4.34359 8.3587C4.58218 8.43925 4.81125 8.54561 5.02675 8.67588C4.33635 9.25889 4.37655 10.1635 4.51737 10.6094C4.54007 10.68 4.58979 10.7387 4.65565 10.7728C4.72152 10.8068 4.79819 10.8134 4.86889 10.7911C4.9396 10.7687 4.99859 10.7193 5.03297 10.6536C5.06735 10.5879 5.07433 10.5113 5.05238 10.4405C5.00188 10.2506 4.98584 10.0532 5.00501 9.85757C5.01946 9.66663 5.08338 9.48275 5.19049 9.32402C5.29759 9.16529 5.44419 9.03719 5.61585 8.95233C6.11321 9.11522 6.64125 9.13355 7.1812 9.13355H7.83487L7.90163 9.25403C8.15219 9.70556 8.26716 10.2198 8.23274 10.735L8.22708 10.8209C8.22465 10.8577 8.22948 10.8946 8.2413 10.9295C8.25312 10.9643 8.2717 10.9966 8.29597 11.0243C8.32025 11.052 8.34974 11.0747 8.38277 11.091C8.4158 11.1073 8.45172 11.1169 8.48848 11.1194C8.49475 11.1198 8.50101 11.12 8.50718 11.12C8.5783 11.1199 8.64673 11.0928 8.69865 11.0442C8.75056 10.9956 8.78207 10.9291 8.78681 10.8581L8.79252 10.7723C8.82936 10.219 8.72372 9.66556 8.48568 9.16478C8.64768 9.22649 9.13868 9.49383 9.23168 10.4815C9.23821 10.5509 9.27042 10.6155 9.32201 10.6625C9.3736 10.7095 9.44086 10.7356 9.51065 10.7357C9.51944 10.7357 9.52837 10.7353 9.5373 10.7344C9.61137 10.7275 9.67964 10.6913 9.72708 10.634C9.77453 10.5767 9.79726 10.5029 9.79029 10.4289C9.73138 9.80353 9.53702 9.38962 9.31808 9.11587C9.51932 9.07616 9.7023 8.97237 9.83966 8.82002L10.4481 9.64961ZM9.89015 2.10018C9.84055 2.42708 9.66943 2.88316 9.10109 2.88316H8.89687C8.94794 2.61866 9.01383 2.35724 9.09422 2.10013H9.89015V2.10018ZM6.10536 0.566098C6.1156 0.57204 6.1262 0.577333 6.1371 0.581947C6.57967 0.765408 6.93542 1.33879 6.87114 1.7636C6.86433 1.80385 6.86639 1.84511 6.87718 1.88448C6.88797 1.92386 6.90723 1.9604 6.9336 1.99157C6.95997 2.02273 6.99283 2.04776 7.02988 2.06492C7.06693 2.08207 7.10728 2.09093 7.1481 2.09087C7.21492 2.09078 7.27951 2.06685 7.33025 2.02338C7.38099 1.97991 7.41455 1.91975 7.42488 1.85374C7.49193 1.42604 7.32539 0.945643 7.0228 0.575636L7.90949 0.584986C7.815 0.859663 7.73215 1.24388 7.80387 1.64204C7.81552 1.70674 7.84951 1.76529 7.89993 1.80748C7.95035 1.84966 8.01398 1.8728 8.07971 1.87286C8.10765 1.87283 8.13542 1.86869 8.16214 1.86056C8.22833 1.83867 8.28433 1.7935 8.31973 1.73343C8.35513 1.67337 8.36753 1.6025 8.35463 1.53399C8.2902 1.15926 8.42448 0.781819 8.50957 0.591298L9.11816 0.597703C8.70498 1.37005 8.42629 2.2071 8.29403 3.07298L8.26322 3.27322L7.05932 3.29557C7.02973 3.29299 7.00096 3.28448 6.97473 3.27055C6.9485 3.25662 6.92534 3.23756 6.90662 3.2145C6.7378 2.27287 6.38864 1.37273 5.87832 0.563573L6.10536 0.566098ZM2.96352 3.69026H3.28416C3.65351 3.69026 4.02413 3.571 4.41653 3.32559C4.5746 3.2268 4.63379 3.04904 4.70238 2.84323C4.84731 2.40814 4.99178 2.10013 5.53426 2.10013H6.00835C6.10873 2.37597 6.19293 2.65851 6.26572 2.94459V3.06919C6.26572 3.07936 6.26628 3.08952 6.26741 3.09963C6.31294 3.51704 6.66911 3.85666 7.06133 3.85666H7.06652L9.48835 3.81168C9.58048 3.81198 9.66872 3.84887 9.73366 3.91422C9.79859 3.97958 9.83491 4.06805 9.83461 4.16018C9.83431 4.25232 9.79743 4.34055 9.73207 4.40549C9.66671 4.47043 9.57824 4.50674 9.48611 4.50644L8.4975 4.50948C8.42311 4.50948 8.35175 4.53904 8.29915 4.59164C8.24654 4.64425 8.21698 4.7156 8.21698 4.79C8.21698 4.8644 8.24654 4.93575 8.29915 4.98836C8.35175 5.04097 8.42311 5.07052 8.4975 5.07052H9.42192C9.53106 5.07052 9.63574 5.11388 9.71292 5.19106C9.7901 5.26824 9.83346 5.37292 9.83346 5.48207C9.83346 5.59122 9.7901 5.6959 9.71292 5.77308C9.63574 5.85026 9.53106 5.89362 9.42192 5.89362H8.49774C8.42334 5.89362 8.35199 5.92317 8.29938 5.97578C8.24677 6.02839 8.21722 6.09974 8.21722 6.17414C8.21722 6.24854 8.24677 6.31989 8.29938 6.3725C8.35199 6.42511 8.42334 6.45466 8.49774 6.45466H9.44286C9.54573 6.45579 9.644 6.49744 9.71634 6.57058C9.78868 6.64372 9.82926 6.74244 9.82926 6.84531C9.82926 6.94818 9.78868 7.0469 9.71634 7.12004C9.644 7.19318 9.54573 7.23484 9.44286 7.23596H8.08C8.0056 7.23596 7.93424 7.26552 7.88164 7.31812C7.82903 7.37073 7.79947 7.44208 7.79947 7.51648C7.79947 7.59088 7.82903 7.66223 7.88164 7.71484C7.93424 7.76745 8.0056 7.797 8.08 7.797H9.13662C9.23874 7.79812 9.33629 7.83948 9.4081 7.91208C9.47991 7.98468 9.52019 8.08268 9.52019 8.1848C9.52019 8.28692 9.47991 8.38492 9.4081 8.45752C9.33629 8.53013 9.23874 8.57148 9.13662 8.5726H7.1812C6.4944 8.5726 5.88309 8.54604 5.35716 8.21975C4.72071 7.82472 3.98649 7.61547 3.2374 7.61565H2.96352V3.69026ZM2.40248 8.39545H0.561043V2.8091H2.40248V8.39545Z" fill="#930396"/>
<path d="M7.06142 11.9964C7.1554 11.9965 7.24551 12.0338 7.31197 12.1003C7.37843 12.1667 7.41581 12.2568 7.41591 12.3508C7.41591 12.4252 7.44546 12.4966 7.49807 12.5492C7.55068 12.6018 7.62203 12.6313 7.69643 12.6313C7.77083 12.6313 7.84218 12.6018 7.89479 12.5492C7.94739 12.4966 7.97695 12.4252 7.97695 12.3508C7.97662 12.1572 7.91501 11.9686 7.80094 11.8122C7.68686 11.6557 7.52619 11.5394 7.34194 11.4799V11.3672C7.34194 11.2928 7.31239 11.2214 7.25978 11.1688C7.20717 11.1162 7.13582 11.0866 7.06142 11.0866C6.98702 11.0866 6.91567 11.1162 6.86306 11.1688C6.81045 11.2214 6.7809 11.2928 6.7809 11.3672V11.4799C6.57318 11.5467 6.39615 11.6855 6.28174 11.8713C6.16733 12.0571 6.12305 12.2777 6.1569 12.4932C6.19074 12.7088 6.30048 12.9052 6.46633 13.047C6.63218 13.1888 6.84322 13.2666 7.06142 13.2666C7.10795 13.2663 7.15409 13.2751 7.1972 13.2926C7.24031 13.3102 7.27954 13.336 7.31266 13.3687C7.34579 13.4014 7.37214 13.4403 7.39024 13.4831C7.40833 13.526 7.4178 13.572 7.4181 13.6186C7.41841 13.6651 7.40955 13.7112 7.39202 13.7543C7.3745 13.7975 7.34866 13.8367 7.31597 13.8698C7.28328 13.9029 7.24439 13.9293 7.20152 13.9474C7.15865 13.9655 7.11263 13.9749 7.0661 13.9752C7.06455 13.9752 7.0631 13.9752 7.06142 13.9752C7.05974 13.9752 7.05847 13.9752 7.05674 13.9752C6.96358 13.974 6.87465 13.9361 6.80917 13.8698C6.7437 13.8036 6.70692 13.7142 6.70679 13.621C6.70679 13.5466 6.67724 13.4752 6.62463 13.4226C6.57202 13.37 6.50067 13.3405 6.42627 13.3405C6.35187 13.3405 6.28052 13.37 6.22791 13.4226C6.17531 13.4752 6.14575 13.5466 6.14575 13.621C6.14603 13.8147 6.20761 14.0033 6.32168 14.1597C6.43575 14.3162 6.59644 14.4326 6.78071 14.4922V14.6338C6.78071 14.7082 6.81027 14.7795 6.86287 14.8321C6.91548 14.8847 6.98683 14.9143 7.06123 14.9143C7.13563 14.9143 7.20698 14.8847 7.25959 14.8321C7.3122 14.7795 7.34175 14.7082 7.34175 14.6338V14.4922C7.54948 14.4254 7.7265 14.2865 7.84091 14.1008C7.95533 13.915 7.9996 13.6944 7.96576 13.4788C7.93191 13.2633 7.82217 13.0669 7.65633 12.9251C7.49048 12.7833 7.27943 12.7054 7.06123 12.7055C6.96793 12.7044 6.87881 12.6666 6.81321 12.6003C6.74761 12.5339 6.71082 12.4444 6.71082 12.3511C6.71082 12.2577 6.74761 12.1682 6.81321 12.1018C6.87881 12.0355 6.96793 11.9977 7.06123 11.9966L7.06142 11.9964Z" fill="#930396"/>
</svg>
