<svg width="40" height="40" viewBox="0 0 40 40" fill="none" xmlns="http://www.w3.org/2000/svg">
<circle cx="20" cy="20" r="20" fill="#00AEFF"/>
<path d="M16 19C15.8022 19 15.6089 19.0586 15.4444 19.1685C15.28 19.2784 15.1518 19.4346 15.0761 19.6173C15.0004 19.8 14.9806 20.0011 15.0192 20.1951C15.0578 20.3891 15.153 20.5673 15.2929 20.7071C15.4327 20.847 15.6109 20.9422 15.8049 20.9808C15.9989 21.0194 16.1999 20.9996 16.3827 20.9239C16.5654 20.8482 16.7216 20.72 16.8315 20.5556C16.9413 20.3911 17 20.1978 17 20C17 19.7348 16.8946 19.4804 16.7071 19.2929C16.5196 19.1054 16.2652 19 16 19ZM20 19C19.8022 19 19.6089 19.0586 19.4444 19.1685C19.28 19.2784 19.1518 19.4346 19.0761 19.6173C19.0004 19.8 18.9806 20.0011 19.0192 20.1951C19.0578 20.3891 19.153 20.5673 19.2929 20.7071C19.4327 20.847 19.6109 20.9422 19.8049 20.9808C19.9989 21.0194 20.1999 20.9996 20.3827 20.9239C20.5654 20.8482 20.7216 20.72 20.8315 20.5556C20.9413 20.3911 21 20.1978 21 20C21 19.7348 20.8946 19.4804 20.7071 19.2929C20.5196 19.1054 20.2652 19 20 19ZM24 19C23.8022 19 23.6089 19.0586 23.4444 19.1685C23.28 19.2784 23.1518 19.4346 23.0761 19.6173C23.0004 19.8 22.9806 20.0011 23.0192 20.1951C23.0578 20.3891 23.153 20.5673 23.2929 20.7071C23.4327 20.847 23.6109 20.9422 23.8049 20.9808C23.9989 21.0194 24.1999 20.9996 24.3827 20.9239C24.5654 20.8482 24.7216 20.72 24.8315 20.5556C24.9413 20.3911 25 20.1978 25 20C25 19.7348 24.8946 19.4804 24.7071 19.2929C24.5196 19.1054 24.2652 19 24 19ZM20 10C18.6868 10 17.3864 10.2587 16.1732 10.7612C14.9599 11.2638 13.8575 12.0003 12.9289 12.9289C11.0536 14.8043 9.99999 17.3478 9.99999 20C9.99125 22.3091 10.7908 24.5485 12.26 26.33L10.26 28.33C10.1212 28.4706 10.0272 28.6492 9.98986 28.8432C9.95249 29.0372 9.97341 29.2379 10.05 29.42C10.133 29.5999 10.2677 29.7511 10.4368 29.8544C10.606 29.9577 10.802 30.0083 11 30H20C22.6522 30 25.1957 28.9464 27.0711 27.0711C28.9464 25.1957 30 22.6522 30 20C30 17.3478 28.9464 14.8043 27.0711 12.9289C25.1957 11.0536 22.6522 10 20 10ZM20 28H13.41L14.34 27.07C14.4345 26.9774 14.5096 26.8669 14.5611 26.7451C14.6126 26.6232 14.6394 26.4923 14.64 26.36C14.6362 26.0962 14.5284 25.8446 14.34 25.66C13.0306 24.352 12.2152 22.6305 12.0327 20.7888C11.8502 18.947 12.3119 17.099 13.3392 15.5595C14.3665 14.02 15.8958 12.8844 17.6665 12.346C19.4372 11.8076 21.3398 11.8998 23.0502 12.6069C24.7606 13.314 26.1728 14.5923 27.0464 16.2239C27.92 17.8555 28.2009 19.7395 27.8411 21.555C27.4814 23.3705 26.5033 25.005 25.0735 26.1802C23.6438 27.3554 21.8508 27.9985 20 28Z" fill="white"/>
</svg>
