<svg width="6" height="20" viewBox="0 0 6 20" fill="none" xmlns="http://www.w3.org/2000/svg">
<path d="M0.199951 16.8516C0.199951 18.2325 1.31965 19.3516 2.69995 19.3516C4.08087 19.3516 5.19995 18.2325 5.19995 16.8516C5.19995 15.4707 4.08087 14.3516 2.69995 14.3516C1.31965 14.3516 0.199951 15.4707 0.199951 16.8516ZM4.0896 16.8516C4.0896 17.6178 3.46616 18.2407 2.69995 18.2407C1.93374 18.2407 1.31092 17.6178 1.31092 16.8516C1.31092 16.0854 1.93374 15.4626 2.69995 15.4626C3.46616 15.4626 4.0896 16.086 4.0896 16.8516Z" fill="#BDBDBD"/>
<path d="M0.199951 10C0.199951 11.3809 1.31903 12.5 2.69995 12.5C4.08087 12.5 5.19995 11.3809 5.19995 10C5.19995 8.61908 4.08087 7.5 2.69995 7.5C1.31965 7.5 0.199951 8.61908 0.199951 10ZM4.0896 10C4.0896 10.7662 3.46616 11.389 2.69995 11.389C1.93374 11.389 1.31092 10.7662 1.31092 10C1.31092 9.23379 1.93374 8.61035 2.69995 8.61035C3.46616 8.61035 4.0896 9.23379 4.0896 10Z" fill="#BDBDBD"/>
<path d="M0.199951 3.14841C0.199951 4.52933 1.31903 5.64841 2.69995 5.64841C4.08087 5.64841 5.19995 4.52933 5.19995 3.14841C5.19995 1.76748 4.08087 0.648407 2.69995 0.648407C1.31965 0.648407 0.199951 1.76748 0.199951 3.14841ZM4.0896 3.14841C4.0896 3.91462 3.46616 4.53681 2.69995 4.53681C1.93374 4.53681 1.31092 3.91462 1.31092 3.14841C1.31092 2.3822 1.93374 1.75938 2.69995 1.75938C3.46616 1.75938 4.0896 2.38282 4.0896 3.14841Z" fill="#BDBDBD"/>
</svg>
