<svg width="25" height="20" viewBox="0 0 25 20" fill="none" xmlns="http://www.w3.org/2000/svg">
<path d="M8.28166 17.0833H9.58333V19.5833H8.28166C7.84993 19.5833 7.5 19.2334 7.5 18.8017V17.865C7.5 17.4333 7.84993 17.0833 8.28166 17.0833Z" fill="#75ACFF"/>
<path d="M9.58325 17.0833H10.4166L12.2662 15.8502C12.6255 15.6108 13.1107 15.7078 13.3501 16.0671L13.3945 16.1334C13.6012 16.4435 13.5603 16.8563 13.2968 17.1198L12.9166 17.5H14.5833L16.0274 16.6335C16.3852 16.4189 16.8487 16.523 17.08 16.8701C17.3142 17.2213 17.2273 17.6947 16.8841 17.9399L14.5833 19.5833H9.58325V17.0833Z" fill="#FFD7A8"/>
<path d="M16.7184 2.91666H15.4167V0.416664H16.7184C17.1501 0.416664 17.5001 0.766599 17.5001 1.19832V2.13501C17.5001 2.56673 17.1501 2.91666 16.7184 2.91666Z" fill="#75ACFF"/>
<path d="M15.4168 2.91666H14.5834L12.7339 4.14977C12.3746 4.38924 11.8893 4.29219 11.6499 3.9329L11.6055 3.86657C11.3988 3.55651 11.4397 3.14371 11.7032 2.88024L12.0834 2.5H10.4168L8.97266 3.36649C8.61479 3.58113 8.15133 3.47696 7.92 3.12988C7.68583 2.77872 7.77271 2.30529 8.11593 2.06014L10.4168 0.416664H15.4168V2.91666Z" fill="#FFD7A8"/>
<path d="M6.66659 6.25H18.3333C18.7935 6.25 19.1666 6.62313 19.1666 7.08333V12.9167C19.1666 13.3769 18.7935 13.75 18.3333 13.75H6.66659C6.20638 13.75 5.83325 13.3769 5.83325 12.9167V7.08333C5.83325 6.62313 6.20638 6.25 6.66659 6.25Z" fill="#EFEFEF"/>
<path d="M19.1667 11.25C17.7861 11.25 16.6667 12.3694 16.6667 13.75H18.3334C18.7936 13.75 19.1667 13.3769 19.1667 12.9167V11.25Z" fill="#73C97C"/>
<path d="M8.33325 6.25H6.66659C6.20638 6.25 5.83325 6.62313 5.83325 7.08333V8.75C7.21387 8.75 8.33325 7.63062 8.33325 6.25Z" fill="#73C97C"/>
<path d="M14.5834 10C14.5834 11.1505 13.6506 12.0833 12.5001 12.0833C11.3496 12.0833 10.4167 11.1505 10.4167 10C10.4167 8.84948 11.3496 7.91666 12.5001 7.91666C13.6506 7.91666 14.5834 8.84948 14.5834 10Z" fill="#73C97C"/>
<path d="M16.6667 4.58333H24.1667C24.3968 4.58333 24.5833 4.76989 24.5833 4.99999V9.16666C24.5833 9.39676 24.3968 9.58333 24.1667 9.58333H16.6667C16.4366 9.58333 16.25 9.39676 16.25 9.16666V4.99999C16.25 4.76989 16.4366 4.58333 16.6667 4.58333Z" fill="#EFEFEF"/>
<path d="M21.2499 7.08333C21.2499 7.54353 20.8768 7.91666 20.4166 7.91666C19.9564 7.91666 19.5833 7.54353 19.5833 7.08333C19.5833 6.62312 19.9564 6.24999 20.4166 6.24999C20.8768 6.24999 21.2499 6.62312 21.2499 7.08333Z" fill="#73C97C"/>
<path d="M16.25 6.24999C17.1704 6.24999 17.9167 5.50374 17.9167 4.58333H16.6667C16.4366 4.58333 16.25 4.76989 16.25 4.99999V6.24999Z" fill="#73C97C"/>
<path d="M24.5834 6.24999C23.663 6.24999 22.9167 5.50374 22.9167 4.58333H24.1667C24.3969 4.58333 24.5834 4.76989 24.5834 4.99999V6.24999Z" fill="#73C97C"/>
<path d="M24.5834 7.91666C23.663 7.91666 22.9167 8.66291 22.9167 9.58332H24.1667C24.3969 9.58332 24.5834 9.39676 24.5834 9.16666V7.91666Z" fill="#73C97C"/>
<path d="M16.25 7.91666V9.16666C16.25 9.39676 16.4366 9.58332 16.6667 9.58332H17.9167C17.9167 8.66291 17.1704 7.91666 16.25 7.91666Z" fill="#73C97C"/>
<path d="M0.833415 10.4167H8.33342C8.56352 10.4167 8.75008 10.6032 8.75008 10.8333V15C8.75008 15.2301 8.56352 15.4167 8.33342 15.4167H0.833415C0.603312 15.4167 0.416748 15.2301 0.416748 15V10.8333C0.416748 10.6032 0.603312 10.4167 0.833415 10.4167Z" fill="#EFEFEF"/>
<path d="M5.41667 12.9167C5.41667 13.3769 5.04354 13.75 4.58333 13.75C4.12313 13.75 3.75 13.3769 3.75 12.9167C3.75 12.4565 4.12313 12.0833 4.58333 12.0833C5.04354 12.0833 5.41667 12.4565 5.41667 12.9167Z" fill="#73C97C"/>
<path d="M0.416748 12.0833C1.33716 12.0833 2.08341 11.3371 2.08341 10.4167H0.833415C0.603312 10.4167 0.416748 10.6032 0.416748 10.8333V12.0833Z" fill="#73C97C"/>
<path d="M8.75016 12.0833C7.82975 12.0833 7.0835 11.3371 7.0835 10.4167H8.3335C8.5636 10.4167 8.75016 10.6032 8.75016 10.8333V12.0833Z" fill="#73C97C"/>
<path d="M8.75016 13.75C7.82975 13.75 7.0835 14.4963 7.0835 15.4167H8.3335C8.5636 15.4167 8.75016 15.2301 8.75016 15V13.75Z" fill="#73C97C"/>
<path d="M0.416748 13.75V15C0.416748 15.2301 0.603312 15.4167 0.833415 15.4167H2.08341C2.08341 14.4963 1.33716 13.75 0.416748 13.75Z" fill="#73C97C"/>
<path d="M15.8132 16.276L14.4681 17.0833H13.8254C14.0065 16.7021 13.9746 16.2537 13.741 15.9021L13.6971 15.8362C13.5209 15.5715 13.2468 15.3878 12.9351 15.3255C12.6235 15.2631 12.2998 15.3274 12.0353 15.5037L10.2907 16.6667H8.28182C7.6204 16.6673 7.08411 17.2036 7.0835 17.865V18.8017C7.08411 19.4631 7.6204 19.9994 8.28182 20H14.717L17.1264 18.2788C17.6499 17.9049 17.7846 17.1845 17.432 16.6465C17.0792 16.1086 16.3647 15.945 15.8132 16.276ZM9.16683 19.1667H8.28182C8.0804 19.1665 7.91703 19.0031 7.91683 18.8017V17.865C7.91703 17.6636 8.0804 17.5002 8.28182 17.5H9.16683V19.1667ZM16.6422 17.6009L14.45 19.1667H10.0002V17.5H10.543L12.4975 16.1971C12.6656 16.0852 12.8922 16.1308 13.0041 16.2988L13.0481 16.3647C13.1441 16.5096 13.1252 16.7021 13.0025 16.8254L11.9106 17.9167H14.6989L16.2418 16.9906C16.4099 16.8899 16.6276 16.9397 16.735 17.1035C16.8426 17.2675 16.8015 17.4868 16.6422 17.6009Z" fill="black"/>
<path d="M9.18696 3.72396L10.532 2.91667H11.1747C10.9936 3.29793 11.0255 3.74634 11.2591 4.0979L11.3031 4.16382C11.4786 4.42892 11.7531 4.61283 12.065 4.67448C12.1433 4.69015 12.2229 4.69808 12.3026 4.69808C12.5384 4.69788 12.7689 4.62769 12.9648 4.49626L14.7094 3.33333H16.7183C17.3797 3.33272 17.916 2.79643 17.9166 2.13501V1.19832C17.916 0.536906 17.3797 0.000610354 16.7183 0H10.2832L7.87369 1.72119C7.35021 2.09513 7.21553 2.81555 7.56811 3.35348C7.92089 3.8914 8.63541 4.05497 9.18696 3.72396ZM15.8333 0.833333H16.7183C16.9197 0.833537 17.0831 0.996908 17.0833 1.19832V2.13501C17.0831 2.33643 16.9197 2.4998 16.7183 2.5H15.8333V0.833333ZM8.3579 2.39909L10.5501 0.833333H15V2.5H14.4571L12.5026 3.8029C12.3345 3.9148 12.1079 3.86922 11.996 3.70117L11.9521 3.63525C11.856 3.4904 11.875 3.29793 11.9976 3.17464L13.0896 2.08333H10.3013L8.75829 3.00944C8.59024 3.11015 8.37255 3.0603 8.26513 2.89653C8.1575 2.73254 8.1986 2.51322 8.3579 2.39909Z" fill="black"/>
<path d="M19.5833 10.8333H19.1667C17.7185 10.836 16.4911 11.9 16.2834 13.3333H10V14.1667H18.3333C19.0234 14.1659 19.5825 13.6068 19.5833 12.9167V10.8333ZM18.75 12.9167C18.7498 13.1468 18.5634 13.3331 18.3333 13.3333H17.1252C17.2937 12.5159 17.9325 11.877 18.75 11.7086V12.9167Z" fill="black"/>
<path d="M5.4165 7.08334V9.16667H5.83317C7.28133 9.16402 8.50875 8.09998 8.71647 6.66667H14.9998V5.83334H6.6665C5.9764 5.83415 5.41732 6.39323 5.4165 7.08334ZM6.24984 7.08334C6.25004 6.85323 6.4364 6.66687 6.6665 6.66667H7.87459C7.70614 7.48413 7.0673 8.12297 6.24984 8.29143V7.08334Z" fill="black"/>
<path d="M10 10C10 11.3806 11.1194 12.5 12.5 12.5C13.8806 12.5 15 11.3806 15 10C15 8.61939 13.8806 7.5 12.5 7.5C11.12 7.50142 10.0014 8.62 10 10ZM14.1667 10C14.1667 10.9204 13.4204 11.6667 12.5 11.6667C11.5796 11.6667 10.8333 10.9204 10.8333 10C10.8333 9.07959 11.5796 8.33333 12.5 8.33333C13.42 8.33435 14.1657 9.08 14.1667 10Z" fill="black"/>
<path d="M20.4167 5.83334C19.7264 5.83334 19.1667 6.39303 19.1667 7.08334C19.1667 7.77364 19.7264 8.33334 20.4167 8.33334C21.1071 8.33334 21.6667 7.77364 21.6667 7.08334C21.6659 6.39323 21.1069 5.83415 20.4167 5.83334ZM20.4167 7.5C20.1866 7.5 20.0001 7.31344 20.0001 7.08334C20.0001 6.85323 20.1866 6.66667 20.4167 6.66667C20.6469 6.66667 20.8334 6.85323 20.8334 7.08334C20.8332 7.31344 20.6469 7.4998 20.4167 7.5Z" fill="black"/>
<path d="M24.1666 4.16666H16.6666C16.2066 4.16727 15.8339 4.54 15.8333 5V9.16666C15.8339 9.62667 16.2066 9.99939 16.6666 10H24.1666C24.6266 9.99939 24.9993 9.62667 24.9999 9.16666V5C24.9993 4.54 24.6266 4.16727 24.1666 4.16666ZM24.1666 5V5.76212C23.811 5.63537 23.5312 5.35563 23.4047 5H24.1666ZM16.6666 5H17.4285C17.302 5.35563 17.0222 5.63537 16.6666 5.76212V5ZM16.6666 9.16666V8.40454C17.0222 8.53129 17.302 8.81103 17.4285 9.16666H16.6666ZM18.2911 9.16666C18.1227 8.3494 17.4838 7.71057 16.6666 7.54211V6.62455C17.4838 6.45609 18.1227 5.81726 18.2911 5H22.542C22.7105 5.81726 23.3493 6.45609 24.1666 6.62455V7.54211C23.3493 7.71057 22.7105 8.3494 22.542 9.16666H18.2911ZM24.1666 9.16666H23.4047C23.5312 8.81103 23.811 8.53129 24.1666 8.40454V9.16666Z" fill="black"/>
<path d="M4.58325 11.6667C3.89294 11.6667 3.33325 12.2264 3.33325 12.9167C3.33325 13.607 3.89294 14.1667 4.58325 14.1667C5.27356 14.1667 5.83325 13.607 5.83325 12.9167C5.83244 12.2266 5.27336 11.6675 4.58325 11.6667ZM4.58325 13.3333C4.35315 13.3333 4.16659 13.1468 4.16659 12.9167C4.16659 12.6866 4.35315 12.5 4.58325 12.5C4.81335 12.5 4.99992 12.6866 4.99992 12.9167C4.99972 13.1468 4.81335 13.3331 4.58325 13.3333Z" fill="black"/>
<path d="M9.16667 15V10.8333C9.16606 10.3733 8.79334 10.0006 8.33333 10H0.833333C0.373332 10.0006 0.000610354 10.3733 0 10.8333V15C0.000610354 15.46 0.373332 15.8327 0.833333 15.8333H8.33333C8.79334 15.8327 9.16606 15.46 9.16667 15ZM8.33333 10.8333V11.5955C7.9777 11.4687 7.69796 11.189 7.57141 10.8333H8.33333ZM0.833333 10.8333H1.59526C1.46871 11.189 1.18896 11.4687 0.833333 11.5955V10.8333ZM0.833333 15V14.2379C1.18896 14.3646 1.46871 14.6444 1.59526 15H0.833333ZM2.45789 15C2.28943 14.1827 1.65059 13.5439 0.833333 13.3754V12.4579C1.65059 12.2894 2.28943 11.6506 2.45789 10.8333H6.70878C6.87724 11.6506 7.51607 12.2894 8.33333 12.4579V13.3754C7.51607 13.5439 6.87724 14.1827 6.70878 15H2.45789ZM8.33333 14.2379V15H7.57141C7.69796 14.6444 7.9777 14.3646 8.33333 14.2379Z" fill="black"/>
</svg>
