<svg width="16" height="20" viewBox="0 0 16 20" fill="none" xmlns="http://www.w3.org/2000/svg">
<path d="M15.2381 20H13.3333V18.0952C13.3333 17.3375 13.0323 16.6108 12.4965 16.0749C11.9607 15.5391 11.234 15.2381 10.4762 15.2381H4.7619C4.00414 15.2381 3.27742 15.5391 2.7416 16.0749C2.20578 16.6108 1.90476 17.3375 1.90476 18.0952V20H0V18.0952C0 16.8323 0.501699 15.6211 1.39473 14.7281C2.28776 13.835 3.49897 13.3333 4.7619 13.3333H10.4762C11.7391 13.3333 12.9503 13.835 13.8434 14.7281C14.7364 15.6211 15.2381 16.8323 15.2381 18.0952V20ZM7.61905 11.4286C6.86864 11.4286 6.12557 11.2808 5.43229 10.9936C4.739 10.7064 4.10906 10.2855 3.57844 9.7549C3.04782 9.22428 2.62691 8.59434 2.33974 7.90105C2.05257 7.20776 1.90476 6.4647 1.90476 5.71429C1.90476 4.96387 2.05257 4.22081 2.33974 3.52752C2.62691 2.83423 3.04782 2.2043 3.57844 1.67368C4.10906 1.14306 4.739 0.722144 5.43229 0.434974C6.12557 0.147804 6.86864 -1.1182e-08 7.61905 0C9.13457 2.25831e-08 10.588 0.602039 11.6597 1.67368C12.7313 2.74531 13.3333 4.19876 13.3333 5.71429C13.3333 7.22981 12.7313 8.68326 11.6597 9.7549C10.588 10.8265 9.13457 11.4286 7.61905 11.4286ZM7.61905 9.52381C8.6294 9.52381 9.59836 9.12245 10.3128 8.40803C11.0272 7.6936 11.4286 6.72463 11.4286 5.71429C11.4286 4.70394 11.0272 3.73497 10.3128 3.02055C9.59836 2.30612 8.6294 1.90476 7.61905 1.90476C6.6087 1.90476 5.63973 2.30612 4.92531 3.02055C4.21088 3.73497 3.80952 4.70394 3.80952 5.71429C3.80952 6.72463 4.21088 7.6936 4.92531 8.40803C5.63973 9.12245 6.6087 9.52381 7.61905 9.52381Z" fill="white"/>
</svg>
