<svg width="20" height="23" viewBox="0 0 20 23" fill="none" xmlns="http://www.w3.org/2000/svg">
<path d="M10.0016 0C6.80968 0 4.20044 2.60924 4.20044 5.80117C4.20044 8.9931 6.80968 11.6023 10.0016 11.6023C13.1935 11.6023 15.8028 8.9931 15.8028 5.80117C15.8028 2.60924 13.1935 0 10.0016 0Z" fill="#964103"/>
<path d="M19.9573 16.2382C19.8052 15.8582 19.6026 15.5035 19.3746 15.1742C18.2093 13.4516 16.4107 12.3116 14.3841 12.033C14.1308 12.0076 13.8522 12.0583 13.6495 12.2103C12.5855 12.9956 11.3189 13.4009 10.0016 13.4009C8.68424 13.4009 7.41763 12.9956 6.35366 12.2103C6.15098 12.0583 5.87232 11.9823 5.61901 12.033C3.5924 12.3116 1.76847 13.4516 0.628517 15.1742C0.400525 15.5035 0.197845 15.8835 0.0458831 16.2382C-0.0300978 16.3902 -0.00478701 16.5675 0.0711939 16.7195C0.273874 17.0742 0.527176 17.4289 0.755168 17.7328C1.10981 18.2142 1.48981 18.6448 1.92048 19.0501C2.27513 19.4048 2.68044 19.7341 3.0858 20.0634C5.08705 21.5581 7.49366 22.3433 9.97626 22.3433C12.4589 22.3433 14.8655 21.558 16.8667 20.0634C17.272 19.7595 17.6773 19.4048 18.032 19.0501C18.4373 18.6448 18.8427 18.2141 19.1973 17.7328C19.4506 17.4035 19.6787 17.0742 19.8813 16.7195C20.0079 16.5675 20.0332 16.3902 19.9573 16.2382Z" fill="#964103"/>
</svg>
