<svg width="12" height="20" viewBox="0 0 12 20" fill="none" xmlns="http://www.w3.org/2000/svg">
<path d="M7.33339 1H4.00007C3.81608 1 3.66675 1.14934 3.66675 1.33332C3.66675 1.5173 3.81608 1.66664 4.00007 1.66664H7.33339C7.51737 1.66664 7.66671 1.5173 7.66671 1.33332C7.66671 1.14934 7.51737 1 7.33339 1Z" fill="black"/>
<path d="M9.66664 1H9.33332C9.14934 1 9 1.14934 9 1.33332C9 1.5173 9.14934 1.66664 9.33332 1.66664H9.66664C9.85062 1.66664 9.99996 1.5173 9.99996 1.33332C9.99996 1.14934 9.85062 1 9.66664 1Z" fill="black"/>
<path d="M6.08056 17H5.2529C4.74591 17 4.33325 17.4127 4.33325 17.9196V18.0807C4.33325 18.5877 4.74591 19 5.25259 19H6.08024C6.58724 19 6.99989 18.5877 6.99989 18.0807V17.9196C6.99989 17.4127 6.58724 17 6.08056 17ZM6.33325 18.0807C6.33325 18.22 6.21993 18.3333 6.0806 18.3333H5.2529C5.11325 18.3333 4.99989 18.22 4.99989 18.0807V17.9196C4.99989 17.78 5.11321 17.6666 5.2529 17.6666H6.08024C6.21993 17.6666 6.33325 17.78 6.33325 17.9196V18.0807Z" fill="black"/>
<path d="M10.1287 0H1.205C0.540664 0 0 0.540664 0 1.205V18.795C0 19.4593 0.540664 20 1.205 20H10.1283C10.7927 20 11.3333 19.4593 11.3333 18.7954V1.205C11.3334 0.540664 10.7927 0 10.1287 0ZM10.6667 18.795C10.6667 19.0917 10.4254 19.3333 10.1287 19.3333H1.205C0.908008 19.3333 0.66668 19.0916 0.66668 18.7953V1.205C0.66668 0.90832 0.908008 0.66668 1.205 0.66668H10.1283C10.4253 0.66668 10.6666 0.908359 10.6666 1.205V18.795H10.6667Z" fill="black"/>
<path d="M11 2H0.33332C0.149336 2 0 2.14934 0 2.33332V16.3333C0 16.5173 0.149336 16.6667 0.33332 16.6667H11C11.184 16.6667 11.3333 16.5173 11.3333 16.3333V2.33332C11.3333 2.14934 11.184 2 11 2ZM10.6666 16H0.666641V2.66668H10.6666V16Z" fill="black"/>
</svg>
