<svg width="40" height="40" viewBox="0 0 40 40" fill="none" xmlns="http://www.w3.org/2000/svg">
<circle cx="20" cy="20" r="20" fill="#F938FD"/>
<path d="M27.44 23.0001C27.22 23.0001 26.99 22.9301 26.77 22.8801C26.3245 22.7819 25.8866 22.6516 25.46 22.4901C24.9961 22.3213 24.4861 22.3301 24.0283 22.5147C23.5704 22.6993 23.1971 23.0467 22.98 23.4901L22.76 23.9401C21.786 23.3983 20.891 22.7253 20.1 21.9401C19.3147 21.1491 18.6418 20.2541 18.1 19.2801L18.52 19.0001C18.9633 18.783 19.3108 18.4096 19.4954 17.9518C19.68 17.494 19.6888 16.984 19.52 16.5201C19.3612 16.0925 19.2309 15.6549 19.13 15.2101C19.08 14.9901 19.04 14.7601 19.01 14.5301C18.8885 13.8257 18.5196 13.1879 17.9696 12.7314C17.4196 12.2748 16.7247 12.0297 16.01 12.0401H13.01C12.579 12.0361 12.1522 12.1249 11.7587 12.3006C11.3651 12.4764 11.0141 12.7348 10.7294 13.0584C10.4447 13.382 10.2331 13.7631 10.109 14.1758C9.98482 14.5885 9.95106 15.0232 10.01 15.4501C10.5427 19.6395 12.456 23.532 15.4476 26.5127C18.4393 29.4935 22.3387 31.3926 26.53 31.9101H26.91C27.6474 31.9112 28.3594 31.6406 28.91 31.1501C29.2263 30.8672 29.4791 30.5203 29.6514 30.1324C29.8238 29.7446 29.9119 29.3245 29.91 28.9001V25.9001C29.8977 25.2055 29.6448 24.5367 29.1943 24.0078C28.7439 23.4789 28.1238 23.1227 27.44 23.0001ZM27.94 29.0001C27.9398 29.1421 27.9094 29.2824 27.8508 29.4117C27.7921 29.5411 27.7066 29.6564 27.6 29.7501C27.4882 29.8466 27.3576 29.9187 27.2164 29.9617C27.0752 30.0048 26.9265 30.0178 26.78 30.0001C23.0349 29.5199 19.5562 27.8066 16.8927 25.1304C14.2292 22.4542 12.5324 18.9674 12.07 15.2201C12.0541 15.0736 12.068 14.9254 12.111 14.7845C12.1539 14.6436 12.225 14.5128 12.32 14.4001C12.4137 14.2934 12.529 14.208 12.6584 14.1493C12.7877 14.0907 12.928 14.0603 13.07 14.0601H16.07C16.3025 14.0549 16.5296 14.131 16.7121 14.2752C16.8946 14.4194 17.0212 14.6227 17.07 14.8501C17.11 15.1234 17.16 15.3934 17.22 15.6601C17.3355 16.1873 17.4892 16.7053 17.68 17.2101L16.28 17.8601C16.1603 17.915 16.0526 17.9931 15.9631 18.0897C15.8737 18.1864 15.8042 18.2997 15.7586 18.4233C15.7131 18.5469 15.6925 18.6782 15.6978 18.8098C15.7032 18.9414 15.7345 19.0707 15.79 19.1901C17.2292 22.2729 19.7072 24.7509 22.79 26.1901C23.0334 26.2901 23.3065 26.2901 23.55 26.1901C23.6747 26.1455 23.7893 26.0766 23.8871 25.9873C23.985 25.898 24.0641 25.7902 24.12 25.6701L24.74 24.2701C25.2569 24.455 25.7846 24.6086 26.32 24.7301C26.5866 24.7901 26.8566 24.8401 27.13 24.8801C27.3574 24.9289 27.5607 25.0554 27.7049 25.238C27.8491 25.4205 27.9252 25.6476 27.92 25.8801L27.94 29.0001Z" fill="white"/>
</svg>
