<svg width="24" height="20" viewBox="0 0 24 20" fill="none" xmlns="http://www.w3.org/2000/svg">
<path d="M22.9947 0.817192C23.1069 0.295016 22.5949 -0.145277 22.0955 0.0452751L0.433688 8.31453C0.172981 8.41407 0.000540568 8.66395 1.2686e-06 8.94299C-0.000538031 9.22208 0.170914 9.47263 0.431261 9.57316L6.51649 11.9234V19.3258C6.51649 19.6381 6.7309 19.9095 7.03471 19.9817C7.33649 20.0535 7.65117 19.9099 7.79265 19.6292L10.3094 14.6349L16.4513 19.193C16.8249 19.4703 17.3619 19.294 17.4979 18.8484C23.2324 0.0467588 22.9845 0.864426 22.9947 0.817192ZM17.6475 3.18642L7.09507 10.7015L2.55471 8.94798L17.6475 3.18642ZM7.86474 11.8086L17.0628 5.25801C9.148 13.6077 9.56137 13.1682 9.52686 13.2147C9.47558 13.2837 9.61607 13.0148 7.86474 16.4901V11.8086ZM16.4871 17.5407L11.0808 13.5285L20.8561 3.21608L16.4871 17.5407Z" fill="white"/>
</svg>
