<svg width="20" height="20" viewBox="0 0 20 20" fill="none" xmlns="http://www.w3.org/2000/svg">
<path d="M16.1263 14.3847C16.5328 14.06 16.8459 13.6247 17.0234 13.125H17.1875C17.8769 13.125 18.4375 12.5644 18.4375 11.875C18.4375 11.4144 18.1844 11.0156 17.8125 10.7987V9.375C17.8125 7.99656 16.6909 6.875 15.3125 6.875H13.4375C12.0591 6.875 10.9375 7.99656 10.9375 9.375V10.7987C10.5656 11.0156 10.3125 11.4144 10.3125 11.875C10.3125 12.5644 10.8731 13.125 11.5625 13.125H11.7266C11.9041 13.6247 12.2172 14.0597 12.6237 14.3847C10.8162 14.4834 9.375 15.9806 9.375 17.8125V19.0625C9.375 19.2353 9.515 19.375 9.6875 19.375H19.0625C19.235 19.375 19.375 19.2353 19.375 19.0625V17.8125C19.375 15.9806 17.9338 14.4834 16.1263 14.3847ZM12.9747 15L13.9563 16.2269L13.0044 17.1788L12.5709 15.0122C12.6509 15.0053 12.7309 15 12.8125 15H12.9747ZM14.9747 15L14.375 15.7497L13.7753 15H14.9747ZM15.7753 15H15.9375C16.0191 15 16.0991 15.0053 16.1788 15.0122L15.7453 17.1788L14.7934 16.2269L15.7753 15ZM17.1875 12.5H17.1691C17.1806 12.3972 17.1875 12.2931 17.1875 12.1875V11.25C17.5322 11.25 17.8125 11.5303 17.8125 11.875C17.8125 12.2197 17.5322 12.5 17.1875 12.5ZM11.5625 9.375C11.5625 8.34094 12.4034 7.5 13.4375 7.5H15.3125C16.3466 7.5 17.1875 8.34094 17.1875 9.375V10.625H16.875H15.9375C15.5928 10.625 15.3125 10.3447 15.3125 10V9.0625V8.75H14.6875V9.0625C14.6875 9.92406 13.9866 10.625 13.125 10.625H11.875H11.5625V9.375ZM11.5625 12.5C11.2178 12.5 10.9375 12.2197 10.9375 11.875C10.9375 11.5303 11.2178 11.25 11.5625 11.25V12.1875C11.5625 12.2931 11.5694 12.3972 11.5809 12.5H11.5625ZM12.1875 12.1875V11.25H13.125C13.7888 11.25 14.3834 10.9516 14.785 10.4831C14.9744 10.9331 15.4194 11.25 15.9375 11.25H16.5625V12.1875C16.5625 13.3934 15.5813 14.375 14.375 14.375C13.1688 14.375 12.1875 13.3934 12.1875 12.1875ZM18.75 18.75H10V17.8125C10 16.5597 10.8241 15.4963 11.9581 15.1338L12.5063 17.8741C12.5288 17.9869 12.6119 18.0784 12.7222 18.1119C12.7519 18.1206 12.7822 18.125 12.8125 18.125C12.8941 18.125 12.9741 18.0928 13.0334 18.0334L14.375 16.6919L15.7166 18.0334C15.7759 18.0928 15.8559 18.125 15.9375 18.125C15.9678 18.125 15.9981 18.1206 16.0281 18.1116C16.1384 18.0784 16.2216 17.9869 16.2441 17.8737L16.7922 15.1334C17.9259 15.4962 18.75 16.5597 18.75 17.8125V18.75Z" fill="#005D80"/>
<path d="M10 12.1875V10.9375C10 9.10563 8.55875 7.60844 6.75125 7.50969C7.15781 7.185 7.47094 6.74969 7.64844 6.25H7.8125C8.50187 6.25 9.0625 5.68937 9.0625 5C9.0625 4.53937 8.80937 4.14062 8.4375 3.92375V2.5C8.4375 1.12156 7.31594 0 5.9375 0H4.0625C2.68406 0 1.5625 1.12156 1.5625 2.5V3.92375C1.19062 4.14062 0.9375 4.53937 0.9375 5C0.9375 5.68937 1.49812 6.25 2.1875 6.25H2.35156C2.52906 6.74969 2.84219 7.18469 3.24875 7.50969C1.44125 7.60844 0 9.10563 0 10.9375V12.1875C0 12.3603 0.14 12.5 0.3125 12.5H9.6875C9.86 12.5 10 12.3603 10 12.1875ZM3.59969 8.125L4.58125 9.35188L3.62937 10.3038L3.19594 8.13719C3.27594 8.13031 3.35594 8.125 3.4375 8.125H3.59969ZM5.59969 8.125L5 8.87469L4.40031 8.125H5.59969ZM6.40031 8.125H6.5625C6.64406 8.125 6.72406 8.13031 6.80375 8.13719L6.37031 10.3038L5.41844 9.35188L6.40031 8.125ZM7.8125 5.625H7.79406C7.80562 5.52219 7.8125 5.41813 7.8125 5.3125V4.375C8.15719 4.375 8.4375 4.65531 8.4375 5C8.4375 5.34469 8.15719 5.625 7.8125 5.625ZM2.1875 2.5C2.1875 1.46594 3.02844 0.625 4.0625 0.625H5.9375C6.97156 0.625 7.8125 1.46594 7.8125 2.5V3.75H7.5H6.5625C6.21781 3.75 5.9375 3.46969 5.9375 3.125V2.1875V1.875H5.3125V2.1875C5.3125 3.04906 4.61156 3.75 3.75 3.75H2.5H2.1875V2.5ZM2.1875 5.625C1.84281 5.625 1.5625 5.34469 1.5625 5C1.5625 4.65531 1.84281 4.375 2.1875 4.375V5.3125C2.1875 5.41813 2.19438 5.52219 2.20594 5.625H2.1875ZM2.8125 5.3125V4.375H3.75C4.41375 4.375 5.00844 4.07656 5.41 3.60812C5.59938 4.05813 6.04437 4.375 6.5625 4.375H7.1875V5.3125C7.1875 6.51844 6.20625 7.5 5 7.5C3.79375 7.5 2.8125 6.51844 2.8125 5.3125ZM9.375 11.875H0.625V10.9375C0.625 9.68469 1.44906 8.62125 2.58312 8.25875L3.13125 10.9991C3.15375 11.1119 3.23688 11.2034 3.34719 11.2369C3.37688 11.2456 3.40719 11.25 3.4375 11.25C3.51906 11.25 3.59906 11.2178 3.65844 11.1584L5 9.81688L6.34156 11.1584C6.40094 11.2178 6.48094 11.25 6.5625 11.25C6.59281 11.25 6.62313 11.2456 6.65313 11.2366C6.76344 11.2034 6.84656 11.1119 6.86906 10.9987L7.41719 8.25844C8.55094 8.62125 9.375 9.68469 9.375 10.9375V11.875Z" fill="#005D80"/>
<path d="M8.75006 18.75C7.13256 18.75 5.79787 17.5144 5.64068 15.9375H6.56256C6.68881 15.9375 6.80287 15.8616 6.85131 15.7447C6.89975 15.6278 6.87287 15.4935 6.7835 15.4041L4.596 13.2166C4.47381 13.0944 4.27631 13.0944 4.15412 13.2166L1.96662 15.4041C1.87725 15.4935 1.85037 15.6278 1.89881 15.7447C1.94725 15.8616 2.06131 15.9375 2.18756 15.9375H3.13818C3.29725 17.8594 4.91256 19.375 6.87506 19.375H8.75006C8.92256 19.375 9.06256 19.2353 9.06256 19.0625C9.06256 18.8897 8.92256 18.75 8.75006 18.75ZM3.75006 15.625C3.75006 15.4522 3.61006 15.3125 3.43756 15.3125H2.94193L4.37506 13.8794L5.80818 15.3125H5.31256C5.14006 15.3125 5.00006 15.4522 5.00006 15.625C5.00006 16.9234 5.6635 18.07 6.66912 18.7434C5.04162 18.6369 3.75006 17.2791 3.75006 15.625Z" fill="#005D80"/>
</svg>
