<svg width="40" height="40" viewBox="0 0 40 40" fill="none" xmlns="http://www.w3.org/2000/svg">
<path opacity="0.3" d="M20.7908 1.90612C20.3544 2.34256 19.6485 2.34256 19.212 1.90612C18.7756 1.46968 18.7756 0.763775 19.212 0.327332C19.6485 -0.109111 20.3544 -0.109111 20.7908 0.327332C21.2273 0.763775 21.2273 1.46968 20.7908 1.90612ZM25.512 5.04851C25.0755 4.61206 24.3696 4.61206 23.9332 5.04851C23.4968 5.48495 23.4968 6.19085 23.9332 6.62729C24.3696 7.06373 25.0755 7.06373 25.512 6.62729C25.9484 6.19085 25.9484 5.48495 25.512 5.04851ZM30.2332 9.76968C29.7967 9.33324 29.0908 9.33324 28.6544 9.76968C28.2179 10.2061 28.2179 10.912 28.6544 11.3485C29.0908 11.7849 29.7967 11.7849 30.2332 11.3485C30.6696 10.912 30.6696 10.2061 30.2332 9.76968ZM34.9543 14.4909C34.5179 14.0544 33.812 14.0544 33.3756 14.4909C32.9391 14.9273 32.9391 15.6332 33.3756 16.0696C33.812 16.5061 34.5179 16.5061 34.9543 16.0696C35.3908 15.6332 35.3908 14.9273 34.9543 14.4909ZM39.6755 19.212C39.2391 18.7756 38.5332 18.7756 38.0967 19.212C37.6603 19.6485 37.6603 20.3544 38.0967 20.7908C38.5332 21.2273 39.2391 21.2273 39.6755 20.7908C40.1082 20.3544 40.1082 19.6485 39.6755 19.212ZM16.0696 5.04851C15.6332 4.61206 14.9273 4.61206 14.4909 5.04851C14.0544 5.48495 14.0544 6.19085 14.4909 6.62729C14.9273 7.06373 15.6332 7.06373 16.0696 6.62729C16.5061 6.19085 16.5061 5.48495 16.0696 5.04851ZM20.7908 9.76968C20.3544 9.33324 19.6485 9.33324 19.212 9.76968C18.7756 10.2061 18.7756 10.912 19.212 11.3485C19.6485 11.7849 20.3544 11.7849 20.7908 11.3485C21.2273 10.912 21.2273 10.2061 20.7908 9.76968ZM25.512 14.4909C25.0755 14.0544 24.3696 14.0544 23.9332 14.4909C23.4968 14.9273 23.4968 15.6332 23.9332 16.0696C24.3696 16.5061 25.0755 16.5061 25.512 16.0696C25.9484 15.6332 25.9484 14.9273 25.512 14.4909ZM30.2332 19.212C29.7967 18.7756 29.0908 18.7756 28.6544 19.212C28.2179 19.6485 28.2179 20.3544 28.6544 20.7908C29.0908 21.2273 29.7967 21.2273 30.2332 20.7908C30.6696 20.3544 30.6696 19.6485 30.2332 19.212ZM34.9543 23.9332C34.5179 23.4968 33.812 23.4968 33.3756 23.9332C32.9391 24.3696 32.9391 25.0756 33.3756 25.512C33.812 25.9484 34.5179 25.9484 34.9543 25.512C35.3908 25.0756 35.3908 24.3696 34.9543 23.9332ZM11.3485 9.76968C10.912 9.33324 10.2061 9.33324 9.76968 9.76968C9.33324 10.2061 9.33324 10.912 9.76968 11.3485C10.2061 11.7849 10.912 11.7849 11.3485 11.3485C11.7849 10.912 11.7849 10.2061 11.3485 9.76968ZM16.0696 14.4909C15.6332 14.0544 14.9273 14.0544 14.4909 14.4909C14.0544 14.9273 14.0544 15.6332 14.4909 16.0696C14.9273 16.5061 15.6332 16.5061 16.0696 16.0696C16.5061 15.6332 16.5061 14.9273 16.0696 14.4909ZM20.7908 19.212C20.3544 18.7756 19.6485 18.7756 19.212 19.212C18.7756 19.6485 18.7756 20.3544 19.212 20.7908C19.6485 21.2273 20.3544 21.2273 20.7908 20.7908C21.2273 20.3544 21.2273 19.6485 20.7908 19.212ZM25.512 23.9332C25.0755 23.4968 24.3696 23.4968 23.9332 23.9332C23.4968 24.3696 23.4968 25.0756 23.9332 25.512C24.3696 25.9484 25.0755 25.9484 25.512 25.512C25.9484 25.0756 25.9484 24.3696 25.512 23.9332ZM30.2332 28.6544C29.7967 28.2179 29.0908 28.2179 28.6544 28.6544C28.2179 29.0908 28.2179 29.7967 28.6544 30.2332C29.0908 30.6696 29.7967 30.6696 30.2332 30.2332C30.6696 29.7967 30.6696 29.087 30.2332 28.6544ZM6.62729 14.4909C6.19085 14.0544 5.48495 14.0544 5.04851 14.4909C4.61206 14.9273 4.61206 15.6332 5.04851 16.0696C5.48495 16.5061 6.19085 16.5061 6.62729 16.0696C7.06373 15.6332 7.06373 14.9273 6.62729 14.4909ZM11.3485 19.212C10.912 18.7756 10.2061 18.7756 9.76968 19.212C9.33324 19.6485 9.33324 20.3544 9.76968 20.7908C10.2061 21.2273 10.912 21.2273 11.3485 20.7908C11.7849 20.3544 11.7849 19.6485 11.3485 19.212ZM16.0696 23.9332C15.6332 23.4968 14.9273 23.4968 14.4909 23.9332C14.0544 24.3696 14.0544 25.0756 14.4909 25.512C14.9273 25.9484 15.6332 25.9484 16.0696 25.512C16.5061 25.0756 16.5061 24.3696 16.0696 23.9332ZM20.7908 28.6544C20.3544 28.2179 19.6485 28.2179 19.212 28.6544C18.7756 29.0908 18.7756 29.7967 19.212 30.2332C19.6485 30.6696 20.3544 30.6696 20.7908 30.2332C21.2273 29.7967 21.2273 29.087 20.7908 28.6544ZM25.512 33.3756C25.0755 32.9391 24.3696 32.9391 23.9332 33.3756C23.4968 33.812 23.4968 34.5179 23.9332 34.9543C24.3696 35.3908 25.0755 35.3908 25.512 34.9543C25.9484 34.5179 25.9484 33.8082 25.512 33.3756ZM1.90612 19.212C1.46967 18.7756 0.763775 18.7756 0.327332 19.212C-0.109111 19.6485 -0.109111 20.3544 0.327332 20.7908C0.763775 21.2273 1.46967 21.2273 1.90612 20.7908C2.34256 20.3544 2.34256 19.6485 1.90612 19.212ZM6.62729 23.9332C6.19085 23.4968 5.48495 23.4968 5.04851 23.9332C4.61206 24.3696 4.61206 25.0756 5.04851 25.512C5.48495 25.9484 6.19085 25.9484 6.62729 25.512C7.06373 25.0756 7.06373 24.3696 6.62729 23.9332ZM11.3485 28.6544C10.912 28.2179 10.2061 28.2179 9.76968 28.6544C9.33324 29.0908 9.33324 29.7967 9.76968 30.2332C10.2061 30.6696 10.912 30.6696 11.3485 30.2332C11.7849 29.7967 11.7849 29.087 11.3485 28.6544ZM16.0696 33.3756C15.6332 32.9391 14.9273 32.9391 14.4909 33.3756C14.0544 33.812 14.0544 34.5179 14.4909 34.9543C14.9273 35.3908 15.6332 35.3908 16.0696 34.9543C16.5061 34.5179 16.5061 33.8082 16.0696 33.3756ZM20.7908 38.0929C20.3544 37.6565 19.6485 37.6565 19.212 38.0929C18.7756 38.5294 18.7756 39.2353 19.212 39.6717C19.6485 40.1082 20.3544 40.1082 20.7908 39.6717C21.2273 39.2391 21.2273 38.5294 20.7908 38.0929Z" fill="white"/>
</svg>
