<svg width="14" height="20" viewBox="0 0 14 20" fill="none" xmlns="http://www.w3.org/2000/svg">
<path d="M11.9409 5.5363H11.2425V4.47375C11.2424 2.00678 9.33931 0 7.00004 0C4.66078 0 2.75755 2.00706 2.75755 4.47375V5.5363H2.05923C0.923804 5.5363 0 6.51051 0 7.70787V17.8284C0 19.0261 0.923804 20 2.05923 20H11.9408C13.0762 20 14 19.026 14 17.8284V7.70787C14 6.51051 13.0762 5.5363 11.9409 5.5363ZM4.10097 4.47375C4.10097 2.78808 5.4014 1.41671 7.00004 1.41671C8.59852 1.41671 9.89894 2.78808 9.89894 4.47375V5.5363H4.10097V4.47375ZM12.6567 17.8284C12.6567 18.245 12.3354 18.5833 11.9409 18.5833H2.05914C1.66442 18.5833 1.34333 18.2447 1.34333 17.8284V7.70787C1.34333 7.29162 1.66442 6.95301 2.05914 6.95301H2.75746V7.94639C2.54161 8.1447 2.40239 8.43349 2.40239 8.75935C2.40239 9.35742 2.86208 9.84238 3.42922 9.84238C3.99618 9.84238 4.45605 9.35742 4.45605 8.75935C4.45605 8.43377 4.31674 8.14498 4.10097 7.94639V6.95301H9.89894V7.94639C9.68308 8.1447 9.54386 8.43349 9.54386 8.75935C9.54386 9.35742 10.0036 9.84238 10.5707 9.84238C11.1378 9.84238 11.5975 9.35742 11.5975 8.75935C11.5975 8.43377 11.4582 8.1447 11.2424 7.94639V6.95301H11.9408C12.3355 6.95301 12.6566 7.29162 12.6566 7.70787V17.8284H12.6567Z" fill="white"/>
</svg>
