<svg width="24" height="24" viewBox="0 0 24 24" fill="none" xmlns="http://www.w3.org/2000/svg">
<path d="M12 24C11.7371 24 11.4978 23.853 11.3791 23.6191L10.1656 21.2231L8.12697 22.9733C7.9982 23.0818 7.83708 23.1398 7.67393 23.1398C7.58427 23.1398 7.49393 23.1229 7.40832 23.0872C7.16629 22.9874 6.99978 22.7589 6.9809 22.4987L6.77596 19.8182L4.22225 20.6548C4.15146 20.6778 4.07865 20.6892 4.00584 20.6892C3.82382 20.6892 3.64719 20.6178 3.51371 20.4849C3.32899 20.3009 3.2636 20.0258 3.34517 19.7764L4.18112 17.2227L1.50337 17.0198C1.24247 16.9989 1.01393 16.8344 0.913483 16.5924C0.813708 16.349 0.857528 16.0719 1.02809 15.873L2.77685 13.8344L0.380899 12.6209C0.146966 12.5022 0 12.2616 0 12C0 11.7384 0.146966 11.4978 0.380899 11.3791L2.77685 10.1656L1.02809 8.12697C0.858202 7.92809 0.813708 7.64966 0.913483 7.40832C1.01393 7.16629 1.2418 6.99978 1.50337 6.9809L4.18112 6.77596L3.34517 4.22225C3.2636 3.97281 3.32899 3.69978 3.51371 3.51371C3.64719 3.38157 3.82382 3.31079 4.00584 3.31079C4.07865 3.31079 4.15146 3.32225 4.22225 3.34517L6.77596 4.18112L6.9809 1.50337C7.00045 1.2418 7.16629 1.01393 7.40832 0.913483C7.49393 0.878427 7.58427 0.860899 7.67393 0.860899C7.83708 0.860899 7.9982 0.917528 8.12697 1.02809L10.1656 2.77685L11.3791 0.380899C11.4978 0.146966 11.7371 0 12 0C12.2616 0 12.5022 0.146966 12.6202 0.380899L13.8351 2.77685L15.8737 1.02809C16.0018 0.917528 16.1643 0.860899 16.3261 0.860899C16.4171 0.860899 16.5067 0.878427 16.593 0.913483C16.8344 1.01393 16.9996 1.2418 17.0205 1.50337L17.2247 4.18112L19.7764 3.34517C19.8472 3.32157 19.9213 3.31079 19.9928 3.31079C20.1748 3.31079 20.3528 3.38157 20.4843 3.51371C20.6703 3.69978 20.7357 3.97348 20.6542 4.22225L19.8175 6.77596L22.498 6.9809C22.7582 7.00045 22.9867 7.16629 23.0865 7.40832C23.1863 7.64966 23.1431 7.92809 22.9726 8.12697L21.2225 10.1656L23.6184 11.3791C23.853 11.4984 24 11.7384 24 12C24 12.2616 23.853 12.5016 23.6191 12.6209L21.2231 13.8344L22.9733 15.873C23.1438 16.0719 23.187 16.349 23.0872 16.5924C22.9874 16.8337 22.7589 16.9989 22.4966 17.0198L19.8182 17.2227L20.6548 19.7764C20.7364 20.0265 20.671 20.3002 20.4849 20.4849C20.3535 20.6178 20.1748 20.6892 19.9935 20.6892C19.922 20.6892 19.8479 20.6778 19.7771 20.6548L17.2254 19.8182L17.0211 22.4966C17.0002 22.7589 16.8357 22.9874 16.5937 23.0872C16.5067 23.1229 16.4171 23.1398 16.3267 23.1398C16.1649 23.1398 16.0031 23.0818 15.8744 22.9733L13.8357 21.2231L12.6209 23.6191C12.5022 23.853 12.2616 24 12 24Z" fill="#F4900C"/>
<path d="M20.7639 12C20.7639 16.8398 16.8397 20.7641 11.9999 20.7641C7.16011 20.7641 3.23584 16.8405 3.23584 12C3.23584 7.15956 7.16011 3.23596 11.9999 3.23596C16.8397 3.23596 20.7639 7.16023 20.7639 12Z" fill="#FFCC4D"/>
<path d="M11.9999 15.6883C7.80528 15.6883 6.60663 14.1189 6.60663 14.8604C6.60663 15.6034 9.00394 17.5436 11.9999 17.5436C14.9958 17.5436 17.3931 15.6027 17.3931 14.8604C17.3931 14.1189 16.1952 15.6883 11.9999 15.6883ZM17.3931 9.75303C17.3931 10.7461 16.5882 11.551 15.5952 11.551C14.6028 11.551 13.7979 10.7461 13.7979 9.75303C13.7979 8.75999 14.6028 7.95505 15.5952 7.95505C16.5882 7.95505 17.3931 8.75932 17.3931 9.75303ZM10.2019 9.75303C10.2019 10.7461 9.39629 11.551 8.40394 11.551C7.41158 11.551 6.60596 10.7461 6.60596 9.75303C6.60596 8.75999 7.41225 7.95505 8.40461 7.95505C9.39697 7.95505 10.2019 8.75932 10.2019 9.75303Z" fill="#F4900C"/>
</svg>
