<svg width="15" height="15" viewBox="0 0 15 15" fill="none" xmlns="http://www.w3.org/2000/svg">
<path d="M7.50001 14.4191C11.3213 14.4191 14.4191 11.3214 14.4191 7.5001C14.4191 3.67882 11.3213 0.581055 7.50001 0.581055C3.67872 0.581055 0.580963 3.67882 0.580963 7.5001C0.580963 11.3214 3.67872 14.4191 7.50001 14.4191Z" fill="#1AB6DC"/>
<path d="M7.5 15C3.36483 15 0 11.6358 0 7.5C0 3.36483 3.36483 0 7.5 0C11.6358 0 15 3.36483 15 7.5C15 11.6358 11.6358 15 7.5 15ZM7.5 1.16188C4.00503 1.16188 1.16188 4.00503 1.16188 7.5C1.16188 10.995 4.00503 13.8381 7.5 13.8381C10.995 13.8381 13.8381 10.9944 13.8381 7.5C13.8381 4.00503 10.995 1.16188 7.5 1.16188Z" fill="#1AB6DC"/>
<path d="M6.59373 10.2597C6.43805 10.2597 6.28931 10.1976 6.1795 10.086L4.03582 7.9075C3.811 7.67861 3.8139 7.31146 4.04279 7.08605C4.27169 6.86181 4.63942 6.86412 4.86425 7.09302L6.57688 8.83352L10.1201 4.93132C10.3368 4.69372 10.7039 4.67688 10.9404 4.89183C11.178 5.10737 11.1954 5.47451 10.9799 5.7127L7.02363 10.0698C6.91617 10.1883 6.76512 10.2568 6.60536 10.2603C6.60129 10.2597 6.5978 10.2597 6.59373 10.2597Z" fill="white"/>
</svg>
